<mxfile host="app.diagrams.net" agent="Mozilla/5.0 (Macintosh; Intel Mac OS X 10_15_7) AppleWebKit/537.36 (KHTML, like Gecko) Chrome/137.0.0.0 Safari/537.36" version="27.1.6">
  <diagram name="Pagina-1" id="H8wt1lWEUuqdDcJljqPz">
    <mxGraphModel dx="1073" dy="1782" grid="1" gridSize="10" guides="1" tooltips="1" connect="1" arrows="1" fold="1" page="1" pageScale="1" pageWidth="827" pageHeight="1169" math="0" shadow="0">
      <root>
        <mxCell id="0" />
        <mxCell id="1" parent="0" />
        <mxCell id="KEiRRp0jiS-QSiUn-5vj-1" value="" style="endArrow=none;html=1;rounded=0;fillColor=#f8cecc;strokeColor=#b85450;strokeWidth=2;" edge="1" parent="1">
          <mxGeometry width="50" height="50" relative="1" as="geometry">
            <mxPoint x="180" y="120" as="sourcePoint" />
            <mxPoint x="230" y="70" as="targetPoint" />
          </mxGeometry>
        </mxCell>
        <mxCell id="KEiRRp0jiS-QSiUn-5vj-2" value="" style="endArrow=none;html=1;rounded=0;fillColor=#f8cecc;strokeColor=#b85450;strokeWidth=2;" edge="1" parent="1" source="KEiRRp0jiS-QSiUn-5vj-293">
          <mxGeometry width="50" height="50" relative="1" as="geometry">
            <mxPoint x="160" y="200" as="sourcePoint" />
            <mxPoint x="180" y="120" as="targetPoint" />
          </mxGeometry>
        </mxCell>
        <mxCell id="KEiRRp0jiS-QSiUn-5vj-3" value="" style="endArrow=none;html=1;rounded=0;fillColor=#f8cecc;strokeColor=#b85450;strokeWidth=2;" edge="1" parent="1">
          <mxGeometry width="50" height="50" relative="1" as="geometry">
            <mxPoint x="160" y="200" as="sourcePoint" />
            <mxPoint x="320" y="200" as="targetPoint" />
          </mxGeometry>
        </mxCell>
        <mxCell id="KEiRRp0jiS-QSiUn-5vj-4" value="" style="endArrow=none;html=1;rounded=0;fillColor=#f8cecc;strokeColor=#b85450;strokeWidth=2;" edge="1" parent="1">
          <mxGeometry width="50" height="50" relative="1" as="geometry">
            <mxPoint x="240" y="140" as="sourcePoint" />
            <mxPoint x="320" y="200" as="targetPoint" />
          </mxGeometry>
        </mxCell>
        <mxCell id="KEiRRp0jiS-QSiUn-5vj-5" value="" style="endArrow=none;html=1;rounded=0;fillColor=#f8cecc;strokeColor=#b85450;strokeWidth=2;" edge="1" parent="1">
          <mxGeometry width="50" height="50" relative="1" as="geometry">
            <mxPoint x="240" y="140" as="sourcePoint" />
            <mxPoint x="360" y="40" as="targetPoint" />
          </mxGeometry>
        </mxCell>
        <mxCell id="KEiRRp0jiS-QSiUn-5vj-6" value="" style="endArrow=none;html=1;rounded=0;fillColor=#f8cecc;strokeColor=#b85450;strokeWidth=2;" edge="1" parent="1">
          <mxGeometry width="50" height="50" relative="1" as="geometry">
            <mxPoint x="230" y="70" as="sourcePoint" />
            <mxPoint x="360" y="40" as="targetPoint" />
          </mxGeometry>
        </mxCell>
        <mxCell id="KEiRRp0jiS-QSiUn-5vj-7" value="160, 200" style="text;html=1;align=center;verticalAlign=middle;whiteSpace=wrap;rounded=0;fillColor=#f8cecc;strokeColor=#b85450;" vertex="1" parent="1">
          <mxGeometry x="130" y="210" width="50" height="20" as="geometry" />
        </mxCell>
        <mxCell id="KEiRRp0jiS-QSiUn-5vj-8" value="320, 200" style="text;html=1;align=center;verticalAlign=middle;whiteSpace=wrap;rounded=0;fillColor=#f8cecc;strokeColor=#b85450;" vertex="1" parent="1">
          <mxGeometry x="280" y="210" width="50" height="20" as="geometry" />
        </mxCell>
        <mxCell id="KEiRRp0jiS-QSiUn-5vj-9" value="240, 140" style="text;html=1;align=center;verticalAlign=middle;whiteSpace=wrap;rounded=0;fillColor=#f8cecc;strokeColor=#b85450;" vertex="1" parent="1">
          <mxGeometry x="260" y="130" width="50" height="20" as="geometry" />
        </mxCell>
        <mxCell id="KEiRRp0jiS-QSiUn-5vj-10" value="360, 40" style="text;html=1;align=center;verticalAlign=middle;whiteSpace=wrap;rounded=0;fillColor=#f8cecc;strokeColor=#b85450;" vertex="1" parent="1">
          <mxGeometry x="364" y="30" width="50" height="20" as="geometry" />
        </mxCell>
        <mxCell id="KEiRRp0jiS-QSiUn-5vj-29" value="" style="shape=waypoint;sketch=0;fillStyle=solid;size=6;pointerEvents=1;points=[];fillColor=#ffe6cc;resizable=0;rotatable=0;perimeter=centerPerimeter;snapToPoint=1;strokeColor=#d79b00;" vertex="1" parent="1">
          <mxGeometry x="190" y="150" width="20" height="20" as="geometry" />
        </mxCell>
        <mxCell id="KEiRRp0jiS-QSiUn-5vj-30" value="" style="endArrow=none;dashed=1;html=1;rounded=0;strokeWidth=2;fillColor=#1ba1e2;strokeColor=#006EAF;" edge="1" parent="1">
          <mxGeometry width="50" height="50" relative="1" as="geometry">
            <mxPoint x="350" y="120" as="sourcePoint" />
            <mxPoint x="270" y="20" as="targetPoint" />
          </mxGeometry>
        </mxCell>
        <mxCell id="KEiRRp0jiS-QSiUn-5vj-31" value="" style="endArrow=none;dashed=1;html=1;rounded=0;strokeWidth=2;fillColor=#1ba1e2;strokeColor=#006EAF;" edge="1" parent="1">
          <mxGeometry width="50" height="50" relative="1" as="geometry">
            <mxPoint x="420" y="110" as="sourcePoint" />
            <mxPoint x="320" y="60" as="targetPoint" />
          </mxGeometry>
        </mxCell>
        <mxCell id="KEiRRp0jiS-QSiUn-5vj-32" value="" style="shape=waypoint;sketch=0;fillStyle=solid;size=6;pointerEvents=1;points=[];fillColor=#ffe6cc;resizable=0;rotatable=0;perimeter=centerPerimeter;snapToPoint=1;strokeColor=#d79b00;" vertex="1" parent="1">
          <mxGeometry x="140" y="130" width="20" height="20" as="geometry" />
        </mxCell>
        <mxCell id="KEiRRp0jiS-QSiUn-5vj-33" value="" style="endArrow=none;dashed=1;html=1;rounded=0;fillColor=#1ba1e2;strokeColor=#006EAF;strokeWidth=2;" edge="1" parent="1" source="KEiRRp0jiS-QSiUn-5vj-326">
          <mxGeometry width="50" height="50" relative="1" as="geometry">
            <mxPoint x="400" y="140" as="sourcePoint" />
            <mxPoint x="290" y="120" as="targetPoint" />
          </mxGeometry>
        </mxCell>
        <mxCell id="KEiRRp0jiS-QSiUn-5vj-35" value="" style="endArrow=none;dashed=1;html=1;dashPattern=1 2;strokeWidth=2;rounded=0;fillColor=#6d8764;strokeColor=#0DFF1C;" edge="1" parent="1">
          <mxGeometry width="50" height="50" relative="1" as="geometry">
            <mxPoint x="240" y="240" as="sourcePoint" />
            <mxPoint x="320" y="160" as="targetPoint" />
          </mxGeometry>
        </mxCell>
        <mxCell id="KEiRRp0jiS-QSiUn-5vj-36" value="" style="endArrow=none;dashed=1;html=1;dashPattern=1 2;strokeWidth=2;rounded=0;fillColor=#6d8764;strokeColor=light-dark(#0DFF1C,#9DB395);" edge="1" parent="1">
          <mxGeometry width="50" height="50" relative="1" as="geometry">
            <mxPoint x="390" y="220" as="sourcePoint" />
            <mxPoint x="320" y="160" as="targetPoint" />
          </mxGeometry>
        </mxCell>
        <mxCell id="KEiRRp0jiS-QSiUn-5vj-37" value="" style="endArrow=none;dashed=1;html=1;dashPattern=1 2;strokeWidth=2;rounded=0;fillColor=#6d8764;strokeColor=#0DFF1C;" edge="1" parent="1">
          <mxGeometry width="50" height="50" relative="1" as="geometry">
            <mxPoint x="240" y="240" as="sourcePoint" />
            <mxPoint x="310" y="300" as="targetPoint" />
          </mxGeometry>
        </mxCell>
        <mxCell id="KEiRRp0jiS-QSiUn-5vj-38" value="" style="endArrow=none;dashed=1;html=1;dashPattern=1 2;strokeWidth=2;rounded=0;fillColor=#6d8764;strokeColor=#0DFF1C;" edge="1" parent="1">
          <mxGeometry width="50" height="50" relative="1" as="geometry">
            <mxPoint x="390" y="220" as="sourcePoint" />
            <mxPoint x="310" y="300" as="targetPoint" />
          </mxGeometry>
        </mxCell>
        <mxCell id="KEiRRp0jiS-QSiUn-5vj-41" value="200, 160" style="text;html=1;align=center;verticalAlign=middle;whiteSpace=wrap;rounded=0;fillColor=#ffe6cc;strokeColor=#d79b00;" vertex="1" parent="1">
          <mxGeometry x="175" y="170" width="50" height="20" as="geometry" />
        </mxCell>
        <mxCell id="KEiRRp0jiS-QSiUn-5vj-42" value="150, 140" style="text;html=1;align=center;verticalAlign=middle;whiteSpace=wrap;rounded=0;fillColor=#ffe6cc;strokeColor=#d79b00;" vertex="1" parent="1">
          <mxGeometry x="90" y="130" width="50" height="20" as="geometry" />
        </mxCell>
        <mxCell id="KEiRRp0jiS-QSiUn-5vj-43" value="" style="endArrow=none;dashed=1;html=1;dashPattern=1 2;strokeWidth=2;rounded=0;fillColor=#6d8764;strokeColor=#0DFF1C;" edge="1" parent="1">
          <mxGeometry width="50" height="50" relative="1" as="geometry">
            <mxPoint x="250" y="160" as="sourcePoint" />
            <mxPoint x="250" y="120" as="targetPoint" />
          </mxGeometry>
        </mxCell>
        <mxCell id="KEiRRp0jiS-QSiUn-5vj-44" value="" style="endArrow=none;dashed=1;html=1;dashPattern=1 2;strokeWidth=2;rounded=0;fillColor=#6d8764;strokeColor=#0DFF1C;" edge="1" parent="1">
          <mxGeometry width="50" height="50" relative="1" as="geometry">
            <mxPoint x="250" y="160" as="sourcePoint" />
            <mxPoint x="200" y="140" as="targetPoint" />
          </mxGeometry>
        </mxCell>
        <mxCell id="KEiRRp0jiS-QSiUn-5vj-45" value="" style="endArrow=none;dashed=1;html=1;dashPattern=1 2;strokeWidth=2;rounded=0;fillColor=#6d8764;strokeColor=#0DFF1C;" edge="1" parent="1">
          <mxGeometry width="50" height="50" relative="1" as="geometry">
            <mxPoint x="250" y="120" as="sourcePoint" />
            <mxPoint x="200" y="140" as="targetPoint" />
          </mxGeometry>
        </mxCell>
        <mxCell id="KEiRRp0jiS-QSiUn-5vj-48" value="" style="endArrow=none;dashed=1;html=1;dashPattern=1 2;strokeWidth=2;rounded=0;fillColor=#6d8764;strokeColor=#0DFF1C;" edge="1" parent="1">
          <mxGeometry width="50" height="50" relative="1" as="geometry">
            <mxPoint x="240" y="80" as="sourcePoint" />
            <mxPoint x="220" y="100" as="targetPoint" />
          </mxGeometry>
        </mxCell>
        <mxCell id="KEiRRp0jiS-QSiUn-5vj-49" value="" style="endArrow=none;dashed=1;html=1;dashPattern=1 2;strokeWidth=2;rounded=0;fillColor=#6d8764;strokeColor=#0DFF1C;" edge="1" parent="1">
          <mxGeometry width="50" height="50" relative="1" as="geometry">
            <mxPoint x="240" y="80" as="sourcePoint" />
            <mxPoint x="280" y="70" as="targetPoint" />
          </mxGeometry>
        </mxCell>
        <mxCell id="KEiRRp0jiS-QSiUn-5vj-50" value="" style="endArrow=none;dashed=1;html=1;dashPattern=1 2;strokeWidth=2;rounded=0;fillColor=#6d8764;strokeColor=#0DFF1C;" edge="1" parent="1">
          <mxGeometry width="50" height="50" relative="1" as="geometry">
            <mxPoint x="280" y="70" as="sourcePoint" />
            <mxPoint x="290" y="90" as="targetPoint" />
          </mxGeometry>
        </mxCell>
        <mxCell id="KEiRRp0jiS-QSiUn-5vj-51" value="" style="endArrow=none;dashed=1;html=1;dashPattern=1 2;strokeWidth=2;rounded=0;fillColor=#6d8764;strokeColor=#0DFF1C;" edge="1" parent="1">
          <mxGeometry width="50" height="50" relative="1" as="geometry">
            <mxPoint x="290" y="90" as="sourcePoint" />
            <mxPoint x="260" y="110" as="targetPoint" />
          </mxGeometry>
        </mxCell>
        <mxCell id="KEiRRp0jiS-QSiUn-5vj-52" value="" style="endArrow=none;dashed=1;html=1;dashPattern=1 2;strokeWidth=2;rounded=0;fillColor=#6d8764;strokeColor=#0DFF1C;" edge="1" parent="1">
          <mxGeometry width="50" height="50" relative="1" as="geometry">
            <mxPoint x="220" y="100" as="sourcePoint" />
            <mxPoint x="260" y="110" as="targetPoint" />
          </mxGeometry>
        </mxCell>
        <mxCell id="KEiRRp0jiS-QSiUn-5vj-53" value="" style="endArrow=none;dashed=1;html=1;dashPattern=1 2;strokeWidth=2;rounded=0;fillColor=#6d8764;strokeColor=#0DFF1C;" edge="1" parent="1">
          <mxGeometry width="50" height="50" relative="1" as="geometry">
            <mxPoint x="180" y="30" as="sourcePoint" />
            <mxPoint x="220" y="70" as="targetPoint" />
          </mxGeometry>
        </mxCell>
        <mxCell id="KEiRRp0jiS-QSiUn-5vj-54" value="" style="endArrow=none;dashed=1;html=1;dashPattern=1 2;strokeWidth=2;rounded=0;fillColor=#6d8764;strokeColor=#0DFF1C;" edge="1" parent="1">
          <mxGeometry width="50" height="50" relative="1" as="geometry">
            <mxPoint x="220" y="70" as="sourcePoint" />
            <mxPoint x="170" y="120" as="targetPoint" />
          </mxGeometry>
        </mxCell>
        <mxCell id="KEiRRp0jiS-QSiUn-5vj-55" value="" style="endArrow=none;dashed=1;html=1;dashPattern=1 2;strokeWidth=2;rounded=0;fillColor=#6d8764;strokeColor=#0DFF1C;" edge="1" parent="1">
          <mxGeometry width="50" height="50" relative="1" as="geometry">
            <mxPoint x="180" y="30" as="sourcePoint" />
            <mxPoint x="170" y="120" as="targetPoint" />
          </mxGeometry>
        </mxCell>
        <mxCell id="KEiRRp0jiS-QSiUn-5vj-11" value="230, 70" style="text;html=1;align=center;verticalAlign=middle;whiteSpace=wrap;rounded=0;fillColor=#f8cecc;strokeColor=#b85450;" vertex="1" parent="1">
          <mxGeometry x="200" y="40" width="50" height="20" as="geometry" />
        </mxCell>
        <mxCell id="KEiRRp0jiS-QSiUn-5vj-12" value="180, 120" style="text;html=1;align=center;verticalAlign=middle;whiteSpace=wrap;rounded=0;fillColor=#f8cecc;strokeColor=#b85450;" vertex="1" parent="1">
          <mxGeometry x="140" y="90" width="50" height="20" as="geometry" />
        </mxCell>
        <mxCell id="KEiRRp0jiS-QSiUn-5vj-56" value="" style="endArrow=none;dashed=1;html=1;rounded=0;strokeWidth=2;fillColor=#1ba1e2;strokeColor=#006EAF;" edge="1" parent="1">
          <mxGeometry width="50" height="50" relative="1" as="geometry">
            <mxPoint x="210" y="110" as="sourcePoint" />
            <mxPoint x="190" y="140" as="targetPoint" />
          </mxGeometry>
        </mxCell>
        <mxCell id="KEiRRp0jiS-QSiUn-5vj-58" value="190, 140&lt;div&gt;210, 110&lt;/div&gt;" style="text;html=1;align=center;verticalAlign=middle;whiteSpace=wrap;rounded=0;fillColor=#dae8fc;strokeColor=#6c8ebf;" vertex="1" parent="1">
          <mxGeometry x="140" y="110" width="50" height="30" as="geometry" />
        </mxCell>
        <mxCell id="KEiRRp0jiS-QSiUn-5vj-59" value="290, 120&lt;div&gt;400, 140&lt;/div&gt;" style="text;html=1;align=center;verticalAlign=middle;whiteSpace=wrap;rounded=0;fillColor=#dae8fc;strokeColor=#6c8ebf;" vertex="1" parent="1">
          <mxGeometry x="370" y="145" width="50" height="30" as="geometry" />
        </mxCell>
        <mxCell id="KEiRRp0jiS-QSiUn-5vj-60" value="320, 60&lt;div&gt;420, 110&lt;/div&gt;" style="text;html=1;align=center;verticalAlign=middle;whiteSpace=wrap;rounded=0;fillColor=#dae8fc;strokeColor=#6c8ebf;" vertex="1" parent="1">
          <mxGeometry x="430" y="90" width="50" height="30" as="geometry" />
        </mxCell>
        <mxCell id="KEiRRp0jiS-QSiUn-5vj-61" value="270, 20&lt;div&gt;350, 120&lt;/div&gt;" style="text;html=1;align=center;verticalAlign=middle;whiteSpace=wrap;rounded=0;fillColor=#dae8fc;strokeColor=#6c8ebf;" vertex="1" parent="1">
          <mxGeometry x="290" width="50" height="30" as="geometry" />
        </mxCell>
        <mxCell id="KEiRRp0jiS-QSiUn-5vj-62" value="170, 120&lt;div&gt;220, 70&lt;/div&gt;&lt;div&gt;180, 30&lt;/div&gt;" style="text;html=1;align=center;verticalAlign=middle;whiteSpace=wrap;rounded=0;fillColor=#d5e8d4;strokeColor=#82b366;" vertex="1" parent="1">
          <mxGeometry x="120" y="15" width="50" height="45" as="geometry" />
        </mxCell>
        <mxCell id="KEiRRp0jiS-QSiUn-5vj-63" value="200, 140&lt;div&gt;250, 160&lt;/div&gt;&lt;div&gt;250, 120&lt;/div&gt;" style="text;html=1;align=center;verticalAlign=middle;whiteSpace=wrap;rounded=0;fillColor=#d5e8d4;strokeColor=#82b366;" vertex="1" parent="1">
          <mxGeometry x="230" y="155" width="50" height="45" as="geometry" />
        </mxCell>
        <mxCell id="KEiRRp0jiS-QSiUn-5vj-64" value="240, 240&lt;div&gt;310, 300&lt;/div&gt;&lt;div&gt;390, 220&lt;/div&gt;&lt;div&gt;320, 160&lt;/div&gt;" style="text;html=1;align=center;verticalAlign=middle;whiteSpace=wrap;rounded=0;fillColor=#d5e8d4;strokeColor=#82b366;" vertex="1" parent="1">
          <mxGeometry x="340" y="240" width="50" height="60" as="geometry" />
        </mxCell>
        <mxCell id="KEiRRp0jiS-QSiUn-5vj-65" value="220, 100&lt;div&gt;260, 110&lt;/div&gt;&lt;div&gt;290, 90&lt;/div&gt;&lt;div&gt;280, 70&lt;/div&gt;&lt;div&gt;240, 80&lt;/div&gt;" style="text;html=1;align=center;verticalAlign=middle;whiteSpace=wrap;rounded=0;fillColor=#d5e8d4;strokeColor=#82b366;" vertex="1" parent="1">
          <mxGeometry x="260" y="40" width="50" height="70" as="geometry" />
        </mxCell>
        <mxCell id="KEiRRp0jiS-QSiUn-5vj-109" value="" style="endArrow=none;html=1;rounded=0;fillColor=#f8cecc;strokeColor=#b85450;strokeWidth=2;" edge="1" parent="1">
          <mxGeometry width="50" height="50" relative="1" as="geometry">
            <mxPoint x="610" y="120" as="sourcePoint" />
            <mxPoint x="660" y="70" as="targetPoint" />
          </mxGeometry>
        </mxCell>
        <mxCell id="KEiRRp0jiS-QSiUn-5vj-110" value="" style="endArrow=none;html=1;rounded=0;fillColor=#f8cecc;strokeColor=#b85450;strokeWidth=2;" edge="1" parent="1" source="KEiRRp0jiS-QSiUn-5vj-290">
          <mxGeometry width="50" height="50" relative="1" as="geometry">
            <mxPoint x="590" y="200" as="sourcePoint" />
            <mxPoint x="610" y="120" as="targetPoint" />
          </mxGeometry>
        </mxCell>
        <mxCell id="KEiRRp0jiS-QSiUn-5vj-111" value="" style="endArrow=none;html=1;rounded=0;fillColor=#f8cecc;strokeColor=#b85450;strokeWidth=2;" edge="1" parent="1">
          <mxGeometry width="50" height="50" relative="1" as="geometry">
            <mxPoint x="590" y="200" as="sourcePoint" />
            <mxPoint x="750" y="200" as="targetPoint" />
          </mxGeometry>
        </mxCell>
        <mxCell id="KEiRRp0jiS-QSiUn-5vj-112" value="" style="endArrow=none;html=1;rounded=0;fillColor=#f8cecc;strokeColor=#b85450;strokeWidth=2;" edge="1" parent="1">
          <mxGeometry width="50" height="50" relative="1" as="geometry">
            <mxPoint x="670" y="140" as="sourcePoint" />
            <mxPoint x="750" y="200" as="targetPoint" />
          </mxGeometry>
        </mxCell>
        <mxCell id="KEiRRp0jiS-QSiUn-5vj-113" value="" style="endArrow=none;html=1;rounded=0;fillColor=#f8cecc;strokeColor=#b85450;strokeWidth=2;" edge="1" parent="1">
          <mxGeometry width="50" height="50" relative="1" as="geometry">
            <mxPoint x="670" y="140" as="sourcePoint" />
            <mxPoint x="790" y="40" as="targetPoint" />
          </mxGeometry>
        </mxCell>
        <mxCell id="KEiRRp0jiS-QSiUn-5vj-114" value="" style="endArrow=none;html=1;rounded=0;fillColor=#f8cecc;strokeColor=#b85450;strokeWidth=2;" edge="1" parent="1">
          <mxGeometry width="50" height="50" relative="1" as="geometry">
            <mxPoint x="660" y="70" as="sourcePoint" />
            <mxPoint x="790" y="40" as="targetPoint" />
          </mxGeometry>
        </mxCell>
        <mxCell id="KEiRRp0jiS-QSiUn-5vj-115" value="160, 200" style="text;html=1;align=center;verticalAlign=middle;whiteSpace=wrap;rounded=0;fillColor=#f8cecc;strokeColor=#b85450;" vertex="1" parent="1">
          <mxGeometry x="560" y="210" width="50" height="20" as="geometry" />
        </mxCell>
        <mxCell id="KEiRRp0jiS-QSiUn-5vj-116" value="320, 200" style="text;html=1;align=center;verticalAlign=middle;whiteSpace=wrap;rounded=0;fillColor=#f8cecc;strokeColor=#b85450;" vertex="1" parent="1">
          <mxGeometry x="710" y="210" width="50" height="20" as="geometry" />
        </mxCell>
        <mxCell id="KEiRRp0jiS-QSiUn-5vj-117" value="240, 140" style="text;html=1;align=center;verticalAlign=middle;whiteSpace=wrap;rounded=0;fillColor=#f8cecc;strokeColor=#b85450;" vertex="1" parent="1">
          <mxGeometry x="690" y="130" width="50" height="20" as="geometry" />
        </mxCell>
        <mxCell id="KEiRRp0jiS-QSiUn-5vj-118" value="360, 40" style="text;html=1;align=center;verticalAlign=middle;whiteSpace=wrap;rounded=0;fillColor=#f8cecc;strokeColor=#b85450;" vertex="1" parent="1">
          <mxGeometry x="794" y="30" width="50" height="20" as="geometry" />
        </mxCell>
        <mxCell id="KEiRRp0jiS-QSiUn-5vj-119" value="" style="shape=waypoint;sketch=0;fillStyle=solid;size=6;pointerEvents=1;points=[];fillColor=#ffe6cc;resizable=0;rotatable=0;perimeter=centerPerimeter;snapToPoint=1;strokeColor=#d79b00;" vertex="1" parent="1">
          <mxGeometry x="620" y="150" width="20" height="20" as="geometry" />
        </mxCell>
        <mxCell id="KEiRRp0jiS-QSiUn-5vj-122" value="" style="shape=waypoint;sketch=0;fillStyle=solid;size=6;pointerEvents=1;points=[];fillColor=#ffe6cc;resizable=0;rotatable=0;perimeter=centerPerimeter;snapToPoint=1;strokeColor=#d79b00;" vertex="1" parent="1">
          <mxGeometry x="570" y="130" width="20" height="20" as="geometry" />
        </mxCell>
        <mxCell id="KEiRRp0jiS-QSiUn-5vj-128" value="200, 160" style="text;html=1;align=center;verticalAlign=middle;whiteSpace=wrap;rounded=0;fillColor=#ffe6cc;strokeColor=#d79b00;" vertex="1" parent="1">
          <mxGeometry x="605" y="170" width="50" height="20" as="geometry" />
        </mxCell>
        <mxCell id="KEiRRp0jiS-QSiUn-5vj-129" value="150, 140" style="text;html=1;align=center;verticalAlign=middle;whiteSpace=wrap;rounded=0;fillColor=#ffe6cc;strokeColor=#d79b00;" vertex="1" parent="1">
          <mxGeometry x="520" y="130" width="50" height="20" as="geometry" />
        </mxCell>
        <mxCell id="KEiRRp0jiS-QSiUn-5vj-142" value="180, 120" style="text;html=1;align=center;verticalAlign=middle;whiteSpace=wrap;rounded=0;fillColor=#f8cecc;strokeColor=#b85450;" vertex="1" parent="1">
          <mxGeometry x="570" y="90" width="50" height="20" as="geometry" />
        </mxCell>
        <mxCell id="KEiRRp0jiS-QSiUn-5vj-152" value="" style="endArrow=none;html=1;rounded=0;fillColor=#f8cecc;strokeColor=#b85450;strokeWidth=2;" edge="1" parent="1">
          <mxGeometry width="50" height="50" relative="1" as="geometry">
            <mxPoint x="970" y="120" as="sourcePoint" />
            <mxPoint x="1020" y="70" as="targetPoint" />
          </mxGeometry>
        </mxCell>
        <mxCell id="KEiRRp0jiS-QSiUn-5vj-153" value="" style="endArrow=none;html=1;rounded=0;fillColor=#f8cecc;strokeColor=#b85450;strokeWidth=2;" edge="1" parent="1">
          <mxGeometry width="50" height="50" relative="1" as="geometry">
            <mxPoint x="950" y="200" as="sourcePoint" />
            <mxPoint x="970" y="120" as="targetPoint" />
          </mxGeometry>
        </mxCell>
        <mxCell id="KEiRRp0jiS-QSiUn-5vj-154" value="" style="endArrow=none;html=1;rounded=0;fillColor=#f8cecc;strokeColor=#b85450;strokeWidth=2;" edge="1" parent="1">
          <mxGeometry width="50" height="50" relative="1" as="geometry">
            <mxPoint x="950" y="200" as="sourcePoint" />
            <mxPoint x="1110" y="200" as="targetPoint" />
          </mxGeometry>
        </mxCell>
        <mxCell id="KEiRRp0jiS-QSiUn-5vj-155" value="" style="endArrow=none;html=1;rounded=0;fillColor=#f8cecc;strokeColor=#b85450;strokeWidth=2;" edge="1" parent="1">
          <mxGeometry width="50" height="50" relative="1" as="geometry">
            <mxPoint x="1030" y="140" as="sourcePoint" />
            <mxPoint x="1110" y="200" as="targetPoint" />
          </mxGeometry>
        </mxCell>
        <mxCell id="KEiRRp0jiS-QSiUn-5vj-156" value="" style="endArrow=none;html=1;rounded=0;fillColor=#f8cecc;strokeColor=#b85450;strokeWidth=2;" edge="1" parent="1">
          <mxGeometry width="50" height="50" relative="1" as="geometry">
            <mxPoint x="1030" y="140" as="sourcePoint" />
            <mxPoint x="1150" y="40" as="targetPoint" />
          </mxGeometry>
        </mxCell>
        <mxCell id="KEiRRp0jiS-QSiUn-5vj-157" value="" style="endArrow=none;html=1;rounded=0;fillColor=#f8cecc;strokeColor=#b85450;strokeWidth=2;" edge="1" parent="1">
          <mxGeometry width="50" height="50" relative="1" as="geometry">
            <mxPoint x="1020" y="70" as="sourcePoint" />
            <mxPoint x="1150" y="40" as="targetPoint" />
          </mxGeometry>
        </mxCell>
        <mxCell id="KEiRRp0jiS-QSiUn-5vj-158" value="160, 200" style="text;html=1;align=center;verticalAlign=middle;whiteSpace=wrap;rounded=0;fillColor=#f8cecc;strokeColor=#b85450;" vertex="1" parent="1">
          <mxGeometry x="920" y="210" width="50" height="20" as="geometry" />
        </mxCell>
        <mxCell id="KEiRRp0jiS-QSiUn-5vj-159" value="320, 200" style="text;html=1;align=center;verticalAlign=middle;whiteSpace=wrap;rounded=0;fillColor=#f8cecc;strokeColor=#b85450;" vertex="1" parent="1">
          <mxGeometry x="1070" y="210" width="50" height="20" as="geometry" />
        </mxCell>
        <mxCell id="KEiRRp0jiS-QSiUn-5vj-160" value="240, 140" style="text;html=1;align=center;verticalAlign=middle;whiteSpace=wrap;rounded=0;fillColor=#f8cecc;strokeColor=#b85450;" vertex="1" parent="1">
          <mxGeometry x="1050" y="130" width="50" height="20" as="geometry" />
        </mxCell>
        <mxCell id="KEiRRp0jiS-QSiUn-5vj-161" value="360, 40" style="text;html=1;align=center;verticalAlign=middle;whiteSpace=wrap;rounded=0;fillColor=#f8cecc;strokeColor=#b85450;" vertex="1" parent="1">
          <mxGeometry x="1154" y="30" width="50" height="20" as="geometry" />
        </mxCell>
        <mxCell id="KEiRRp0jiS-QSiUn-5vj-163" value="" style="endArrow=none;dashed=1;html=1;rounded=0;strokeWidth=2;fillColor=#1ba1e2;strokeColor=#006EAF;" edge="1" parent="1">
          <mxGeometry width="50" height="50" relative="1" as="geometry">
            <mxPoint x="1140" y="120" as="sourcePoint" />
            <mxPoint x="1060" y="20" as="targetPoint" />
          </mxGeometry>
        </mxCell>
        <mxCell id="KEiRRp0jiS-QSiUn-5vj-164" value="" style="endArrow=none;dashed=1;html=1;rounded=0;strokeWidth=2;fillColor=#1ba1e2;strokeColor=#006EAF;" edge="1" parent="1">
          <mxGeometry width="50" height="50" relative="1" as="geometry">
            <mxPoint x="1210" y="110" as="sourcePoint" />
            <mxPoint x="1110" y="60" as="targetPoint" />
          </mxGeometry>
        </mxCell>
        <mxCell id="KEiRRp0jiS-QSiUn-5vj-166" value="" style="endArrow=none;dashed=1;html=1;rounded=0;fillColor=#1ba1e2;strokeColor=#006EAF;strokeWidth=2;" edge="1" parent="1">
          <mxGeometry width="50" height="50" relative="1" as="geometry">
            <mxPoint x="1190" y="140" as="sourcePoint" />
            <mxPoint x="1080" y="120" as="targetPoint" />
          </mxGeometry>
        </mxCell>
        <mxCell id="KEiRRp0jiS-QSiUn-5vj-184" value="230, 70" style="text;html=1;align=center;verticalAlign=middle;whiteSpace=wrap;rounded=0;fillColor=#f8cecc;strokeColor=#b85450;" vertex="1" parent="1">
          <mxGeometry x="990" y="40" width="50" height="20" as="geometry" />
        </mxCell>
        <mxCell id="KEiRRp0jiS-QSiUn-5vj-185" value="180, 120" style="text;html=1;align=center;verticalAlign=middle;whiteSpace=wrap;rounded=0;fillColor=#f8cecc;strokeColor=#b85450;" vertex="1" parent="1">
          <mxGeometry x="930" y="90" width="50" height="20" as="geometry" />
        </mxCell>
        <mxCell id="KEiRRp0jiS-QSiUn-5vj-186" value="" style="endArrow=none;dashed=1;html=1;rounded=0;strokeWidth=2;fillColor=#1ba1e2;strokeColor=#006EAF;" edge="1" parent="1">
          <mxGeometry width="50" height="50" relative="1" as="geometry">
            <mxPoint x="1000" y="110" as="sourcePoint" />
            <mxPoint x="980" y="140" as="targetPoint" />
          </mxGeometry>
        </mxCell>
        <mxCell id="KEiRRp0jiS-QSiUn-5vj-187" value="190, 140&lt;div&gt;210, 110&lt;/div&gt;" style="text;html=1;align=center;verticalAlign=middle;whiteSpace=wrap;rounded=0;fillColor=#dae8fc;strokeColor=#6c8ebf;" vertex="1" parent="1">
          <mxGeometry x="970" y="145" width="50" height="30" as="geometry" />
        </mxCell>
        <mxCell id="KEiRRp0jiS-QSiUn-5vj-188" value="290, 120&lt;div&gt;400, 140&lt;/div&gt;" style="text;html=1;align=center;verticalAlign=middle;whiteSpace=wrap;rounded=0;fillColor=#dae8fc;strokeColor=#6c8ebf;" vertex="1" parent="1">
          <mxGeometry x="1160" y="145" width="50" height="30" as="geometry" />
        </mxCell>
        <mxCell id="KEiRRp0jiS-QSiUn-5vj-189" value="320, 60&lt;div&gt;420, 110&lt;/div&gt;" style="text;html=1;align=center;verticalAlign=middle;whiteSpace=wrap;rounded=0;fillColor=#dae8fc;strokeColor=#6c8ebf;" vertex="1" parent="1">
          <mxGeometry x="1220" y="90" width="50" height="30" as="geometry" />
        </mxCell>
        <mxCell id="KEiRRp0jiS-QSiUn-5vj-190" value="270, 20&lt;div&gt;350, 120&lt;/div&gt;" style="text;html=1;align=center;verticalAlign=middle;whiteSpace=wrap;rounded=0;fillColor=#dae8fc;strokeColor=#6c8ebf;" vertex="1" parent="1">
          <mxGeometry x="1080" width="50" height="30" as="geometry" />
        </mxCell>
        <mxCell id="KEiRRp0jiS-QSiUn-5vj-195" value="" style="endArrow=none;html=1;rounded=0;fillColor=#f8cecc;strokeColor=#b85450;strokeWidth=2;" edge="1" parent="1">
          <mxGeometry width="50" height="50" relative="1" as="geometry">
            <mxPoint x="1410" y="120" as="sourcePoint" />
            <mxPoint x="1460" y="70" as="targetPoint" />
          </mxGeometry>
        </mxCell>
        <mxCell id="KEiRRp0jiS-QSiUn-5vj-196" value="" style="endArrow=none;html=1;rounded=0;fillColor=#f8cecc;strokeColor=#b85450;strokeWidth=2;" edge="1" parent="1">
          <mxGeometry width="50" height="50" relative="1" as="geometry">
            <mxPoint x="1390" y="200" as="sourcePoint" />
            <mxPoint x="1410" y="120" as="targetPoint" />
          </mxGeometry>
        </mxCell>
        <mxCell id="KEiRRp0jiS-QSiUn-5vj-197" value="" style="endArrow=none;html=1;rounded=0;fillColor=#f8cecc;strokeColor=#b85450;strokeWidth=2;" edge="1" parent="1">
          <mxGeometry width="50" height="50" relative="1" as="geometry">
            <mxPoint x="1390" y="200" as="sourcePoint" />
            <mxPoint x="1550" y="200" as="targetPoint" />
          </mxGeometry>
        </mxCell>
        <mxCell id="KEiRRp0jiS-QSiUn-5vj-198" value="" style="endArrow=none;html=1;rounded=0;fillColor=#f8cecc;strokeColor=#b85450;strokeWidth=2;" edge="1" parent="1">
          <mxGeometry width="50" height="50" relative="1" as="geometry">
            <mxPoint x="1470" y="140" as="sourcePoint" />
            <mxPoint x="1550" y="200" as="targetPoint" />
          </mxGeometry>
        </mxCell>
        <mxCell id="KEiRRp0jiS-QSiUn-5vj-199" value="" style="endArrow=none;html=1;rounded=0;fillColor=#f8cecc;strokeColor=#b85450;strokeWidth=2;" edge="1" parent="1">
          <mxGeometry width="50" height="50" relative="1" as="geometry">
            <mxPoint x="1470" y="140" as="sourcePoint" />
            <mxPoint x="1590" y="40" as="targetPoint" />
          </mxGeometry>
        </mxCell>
        <mxCell id="KEiRRp0jiS-QSiUn-5vj-200" value="" style="endArrow=none;html=1;rounded=0;fillColor=#f8cecc;strokeColor=#b85450;strokeWidth=2;" edge="1" parent="1">
          <mxGeometry width="50" height="50" relative="1" as="geometry">
            <mxPoint x="1460" y="70" as="sourcePoint" />
            <mxPoint x="1590" y="40" as="targetPoint" />
          </mxGeometry>
        </mxCell>
        <mxCell id="KEiRRp0jiS-QSiUn-5vj-201" value="160, 200" style="text;html=1;align=center;verticalAlign=middle;whiteSpace=wrap;rounded=0;fillColor=#f8cecc;strokeColor=#b85450;" vertex="1" parent="1">
          <mxGeometry x="1360" y="210" width="50" height="20" as="geometry" />
        </mxCell>
        <mxCell id="KEiRRp0jiS-QSiUn-5vj-202" value="320, 200" style="text;html=1;align=center;verticalAlign=middle;whiteSpace=wrap;rounded=0;fillColor=#f8cecc;strokeColor=#b85450;" vertex="1" parent="1">
          <mxGeometry x="1510" y="210" width="50" height="20" as="geometry" />
        </mxCell>
        <mxCell id="KEiRRp0jiS-QSiUn-5vj-203" value="240, 140" style="text;html=1;align=center;verticalAlign=middle;whiteSpace=wrap;rounded=0;fillColor=#f8cecc;strokeColor=#b85450;" vertex="1" parent="1">
          <mxGeometry x="1490" y="130" width="50" height="20" as="geometry" />
        </mxCell>
        <mxCell id="KEiRRp0jiS-QSiUn-5vj-210" value="" style="endArrow=none;dashed=1;html=1;dashPattern=1 2;strokeWidth=2;rounded=0;fillColor=#6d8764;strokeColor=#0DFF1C;" edge="1" parent="1">
          <mxGeometry width="50" height="50" relative="1" as="geometry">
            <mxPoint x="1470" y="240" as="sourcePoint" />
            <mxPoint x="1550" y="160" as="targetPoint" />
          </mxGeometry>
        </mxCell>
        <mxCell id="KEiRRp0jiS-QSiUn-5vj-211" value="" style="endArrow=none;dashed=1;html=1;dashPattern=1 2;strokeWidth=2;rounded=0;fillColor=#6d8764;strokeColor=light-dark(#0DFF1C,#9DB395);" edge="1" parent="1">
          <mxGeometry width="50" height="50" relative="1" as="geometry">
            <mxPoint x="1620" y="220" as="sourcePoint" />
            <mxPoint x="1550" y="160" as="targetPoint" />
          </mxGeometry>
        </mxCell>
        <mxCell id="KEiRRp0jiS-QSiUn-5vj-212" value="" style="endArrow=none;dashed=1;html=1;dashPattern=1 2;strokeWidth=2;rounded=0;fillColor=#6d8764;strokeColor=#0DFF1C;" edge="1" parent="1">
          <mxGeometry width="50" height="50" relative="1" as="geometry">
            <mxPoint x="1470" y="240" as="sourcePoint" />
            <mxPoint x="1540" y="300" as="targetPoint" />
          </mxGeometry>
        </mxCell>
        <mxCell id="KEiRRp0jiS-QSiUn-5vj-213" value="" style="endArrow=none;dashed=1;html=1;dashPattern=1 2;strokeWidth=2;rounded=0;fillColor=#6d8764;strokeColor=#0DFF1C;" edge="1" parent="1">
          <mxGeometry width="50" height="50" relative="1" as="geometry">
            <mxPoint x="1620" y="220" as="sourcePoint" />
            <mxPoint x="1540" y="300" as="targetPoint" />
          </mxGeometry>
        </mxCell>
        <mxCell id="KEiRRp0jiS-QSiUn-5vj-216" value="" style="endArrow=none;dashed=1;html=1;dashPattern=1 2;strokeWidth=2;rounded=0;fillColor=#6d8764;strokeColor=#0DFF1C;" edge="1" parent="1">
          <mxGeometry width="50" height="50" relative="1" as="geometry">
            <mxPoint x="1480" y="160" as="sourcePoint" />
            <mxPoint x="1480" y="120" as="targetPoint" />
          </mxGeometry>
        </mxCell>
        <mxCell id="KEiRRp0jiS-QSiUn-5vj-217" value="" style="endArrow=none;dashed=1;html=1;dashPattern=1 2;strokeWidth=2;rounded=0;fillColor=#6d8764;strokeColor=#0DFF1C;" edge="1" parent="1">
          <mxGeometry width="50" height="50" relative="1" as="geometry">
            <mxPoint x="1480" y="160" as="sourcePoint" />
            <mxPoint x="1430" y="140" as="targetPoint" />
          </mxGeometry>
        </mxCell>
        <mxCell id="KEiRRp0jiS-QSiUn-5vj-218" value="" style="endArrow=none;dashed=1;html=1;dashPattern=1 2;strokeWidth=2;rounded=0;fillColor=#6d8764;strokeColor=#0DFF1C;" edge="1" parent="1">
          <mxGeometry width="50" height="50" relative="1" as="geometry">
            <mxPoint x="1480" y="120" as="sourcePoint" />
            <mxPoint x="1430" y="140" as="targetPoint" />
          </mxGeometry>
        </mxCell>
        <mxCell id="KEiRRp0jiS-QSiUn-5vj-219" value="" style="endArrow=none;dashed=1;html=1;dashPattern=1 2;strokeWidth=2;rounded=0;fillColor=#6d8764;strokeColor=#0DFF1C;" edge="1" parent="1">
          <mxGeometry width="50" height="50" relative="1" as="geometry">
            <mxPoint x="1470" y="80" as="sourcePoint" />
            <mxPoint x="1450" y="100" as="targetPoint" />
          </mxGeometry>
        </mxCell>
        <mxCell id="KEiRRp0jiS-QSiUn-5vj-220" value="" style="endArrow=none;dashed=1;html=1;dashPattern=1 2;strokeWidth=2;rounded=0;fillColor=#6d8764;strokeColor=#0DFF1C;" edge="1" parent="1">
          <mxGeometry width="50" height="50" relative="1" as="geometry">
            <mxPoint x="1470" y="80" as="sourcePoint" />
            <mxPoint x="1510" y="70" as="targetPoint" />
          </mxGeometry>
        </mxCell>
        <mxCell id="KEiRRp0jiS-QSiUn-5vj-221" value="" style="endArrow=none;dashed=1;html=1;dashPattern=1 2;strokeWidth=2;rounded=0;fillColor=#6d8764;strokeColor=#0DFF1C;" edge="1" parent="1">
          <mxGeometry width="50" height="50" relative="1" as="geometry">
            <mxPoint x="1510" y="70" as="sourcePoint" />
            <mxPoint x="1520" y="90" as="targetPoint" />
          </mxGeometry>
        </mxCell>
        <mxCell id="KEiRRp0jiS-QSiUn-5vj-222" value="" style="endArrow=none;dashed=1;html=1;dashPattern=1 2;strokeWidth=2;rounded=0;fillColor=#6d8764;strokeColor=#0DFF1C;" edge="1" parent="1">
          <mxGeometry width="50" height="50" relative="1" as="geometry">
            <mxPoint x="1520" y="90" as="sourcePoint" />
            <mxPoint x="1490" y="110" as="targetPoint" />
          </mxGeometry>
        </mxCell>
        <mxCell id="KEiRRp0jiS-QSiUn-5vj-223" value="" style="endArrow=none;dashed=1;html=1;dashPattern=1 2;strokeWidth=2;rounded=0;fillColor=#6d8764;strokeColor=#0DFF1C;" edge="1" parent="1">
          <mxGeometry width="50" height="50" relative="1" as="geometry">
            <mxPoint x="1450" y="100" as="sourcePoint" />
            <mxPoint x="1490" y="110" as="targetPoint" />
          </mxGeometry>
        </mxCell>
        <mxCell id="KEiRRp0jiS-QSiUn-5vj-224" value="" style="endArrow=none;dashed=1;html=1;dashPattern=1 2;strokeWidth=2;rounded=0;fillColor=#6d8764;strokeColor=#0DFF1C;" edge="1" parent="1">
          <mxGeometry width="50" height="50" relative="1" as="geometry">
            <mxPoint x="1410" y="30" as="sourcePoint" />
            <mxPoint x="1450" y="70" as="targetPoint" />
          </mxGeometry>
        </mxCell>
        <mxCell id="KEiRRp0jiS-QSiUn-5vj-225" value="" style="endArrow=none;dashed=1;html=1;dashPattern=1 2;strokeWidth=2;rounded=0;fillColor=#6d8764;strokeColor=#0DFF1C;" edge="1" parent="1">
          <mxGeometry width="50" height="50" relative="1" as="geometry">
            <mxPoint x="1450" y="70" as="sourcePoint" />
            <mxPoint x="1400" y="120" as="targetPoint" />
          </mxGeometry>
        </mxCell>
        <mxCell id="KEiRRp0jiS-QSiUn-5vj-226" value="" style="endArrow=none;dashed=1;html=1;dashPattern=1 2;strokeWidth=2;rounded=0;fillColor=#6d8764;strokeColor=#0DFF1C;" edge="1" parent="1">
          <mxGeometry width="50" height="50" relative="1" as="geometry">
            <mxPoint x="1410" y="30" as="sourcePoint" />
            <mxPoint x="1400" y="120" as="targetPoint" />
          </mxGeometry>
        </mxCell>
        <mxCell id="KEiRRp0jiS-QSiUn-5vj-227" value="230, 70" style="text;html=1;align=center;verticalAlign=middle;whiteSpace=wrap;rounded=0;fillColor=#f8cecc;strokeColor=#b85450;" vertex="1" parent="1">
          <mxGeometry x="1430" y="40" width="50" height="20" as="geometry" />
        </mxCell>
        <mxCell id="KEiRRp0jiS-QSiUn-5vj-228" value="180, 120" style="text;html=1;align=center;verticalAlign=middle;whiteSpace=wrap;rounded=0;fillColor=#f8cecc;strokeColor=#b85450;" vertex="1" parent="1">
          <mxGeometry x="1370" y="90" width="50" height="20" as="geometry" />
        </mxCell>
        <mxCell id="KEiRRp0jiS-QSiUn-5vj-234" value="170, 120&lt;div&gt;220, 70&lt;/div&gt;&lt;div&gt;180, 30&lt;/div&gt;" style="text;html=1;align=center;verticalAlign=middle;whiteSpace=wrap;rounded=0;fillColor=#d5e8d4;strokeColor=#82b366;" vertex="1" parent="1">
          <mxGeometry x="1350" y="15" width="50" height="45" as="geometry" />
        </mxCell>
        <mxCell id="KEiRRp0jiS-QSiUn-5vj-235" value="200, 140&lt;div&gt;250, 160&lt;/div&gt;&lt;div&gt;250, 120&lt;/div&gt;" style="text;html=1;align=center;verticalAlign=middle;whiteSpace=wrap;rounded=0;fillColor=#d5e8d4;strokeColor=#82b366;" vertex="1" parent="1">
          <mxGeometry x="1400" y="150" width="50" height="45" as="geometry" />
        </mxCell>
        <mxCell id="KEiRRp0jiS-QSiUn-5vj-236" value="240, 240&lt;div&gt;310, 300&lt;/div&gt;&lt;div&gt;390, 220&lt;/div&gt;&lt;div&gt;320, 160&lt;/div&gt;" style="text;html=1;align=center;verticalAlign=middle;whiteSpace=wrap;rounded=0;fillColor=#d5e8d4;strokeColor=#82b366;" vertex="1" parent="1">
          <mxGeometry x="1560" y="290" width="50" height="60" as="geometry" />
        </mxCell>
        <mxCell id="KEiRRp0jiS-QSiUn-5vj-237" value="220, 100&lt;div&gt;260, 110&lt;/div&gt;&lt;div&gt;290, 90&lt;/div&gt;&lt;div&gt;280, 70&lt;/div&gt;&lt;div&gt;240, 80&lt;/div&gt;" style="text;html=1;align=center;verticalAlign=middle;whiteSpace=wrap;rounded=0;fillColor=#d5e8d4;strokeColor=#82b366;" vertex="1" parent="1">
          <mxGeometry x="1530" y="60" width="50" height="70" as="geometry" />
        </mxCell>
        <mxCell id="KEiRRp0jiS-QSiUn-5vj-238" value="" style="endArrow=none;html=1;rounded=0;fillColor=#f8cecc;strokeColor=#b85450;strokeWidth=2;" edge="1" parent="1">
          <mxGeometry width="50" height="50" relative="1" as="geometry">
            <mxPoint x="1750" y="120" as="sourcePoint" />
            <mxPoint x="1800" y="70" as="targetPoint" />
          </mxGeometry>
        </mxCell>
        <mxCell id="KEiRRp0jiS-QSiUn-5vj-239" value="" style="endArrow=none;html=1;rounded=0;fillColor=#f8cecc;strokeColor=#b85450;strokeWidth=2;" edge="1" parent="1" source="KEiRRp0jiS-QSiUn-5vj-322">
          <mxGeometry width="50" height="50" relative="1" as="geometry">
            <mxPoint x="1730" y="200" as="sourcePoint" />
            <mxPoint x="1750" y="120" as="targetPoint" />
          </mxGeometry>
        </mxCell>
        <mxCell id="KEiRRp0jiS-QSiUn-5vj-240" value="" style="endArrow=none;html=1;rounded=0;fillColor=#f8cecc;strokeColor=#b85450;strokeWidth=2;" edge="1" parent="1">
          <mxGeometry width="50" height="50" relative="1" as="geometry">
            <mxPoint x="1730" y="200" as="sourcePoint" />
            <mxPoint x="1890" y="200" as="targetPoint" />
          </mxGeometry>
        </mxCell>
        <mxCell id="KEiRRp0jiS-QSiUn-5vj-241" value="" style="endArrow=none;html=1;rounded=0;fillColor=#f8cecc;strokeColor=#b85450;strokeWidth=2;" edge="1" parent="1">
          <mxGeometry width="50" height="50" relative="1" as="geometry">
            <mxPoint x="1810" y="140" as="sourcePoint" />
            <mxPoint x="1890" y="200" as="targetPoint" />
          </mxGeometry>
        </mxCell>
        <mxCell id="KEiRRp0jiS-QSiUn-5vj-242" value="" style="endArrow=none;html=1;rounded=0;fillColor=#f8cecc;strokeColor=#b85450;strokeWidth=2;" edge="1" parent="1">
          <mxGeometry width="50" height="50" relative="1" as="geometry">
            <mxPoint x="1810" y="140" as="sourcePoint" />
            <mxPoint x="1930" y="40" as="targetPoint" />
          </mxGeometry>
        </mxCell>
        <mxCell id="KEiRRp0jiS-QSiUn-5vj-243" value="" style="endArrow=none;html=1;rounded=0;fillColor=#f8cecc;strokeColor=#b85450;strokeWidth=2;" edge="1" parent="1">
          <mxGeometry width="50" height="50" relative="1" as="geometry">
            <mxPoint x="1800" y="70" as="sourcePoint" />
            <mxPoint x="1930" y="40" as="targetPoint" />
          </mxGeometry>
        </mxCell>
        <mxCell id="KEiRRp0jiS-QSiUn-5vj-248" value="" style="shape=waypoint;sketch=0;fillStyle=solid;size=6;pointerEvents=1;points=[];fillColor=#ffe6cc;resizable=0;rotatable=0;perimeter=centerPerimeter;snapToPoint=1;strokeColor=#d79b00;" vertex="1" parent="1">
          <mxGeometry x="1760" y="150" width="20" height="20" as="geometry" />
        </mxCell>
        <mxCell id="KEiRRp0jiS-QSiUn-5vj-249" value="" style="endArrow=none;dashed=1;html=1;rounded=0;strokeWidth=2;fillColor=#1ba1e2;strokeColor=#006EAF;" edge="1" parent="1">
          <mxGeometry width="50" height="50" relative="1" as="geometry">
            <mxPoint x="1920" y="120" as="sourcePoint" />
            <mxPoint x="1840" y="20" as="targetPoint" />
          </mxGeometry>
        </mxCell>
        <mxCell id="KEiRRp0jiS-QSiUn-5vj-250" value="" style="endArrow=none;dashed=1;html=1;rounded=0;strokeWidth=2;fillColor=#1ba1e2;strokeColor=#006EAF;" edge="1" parent="1">
          <mxGeometry width="50" height="50" relative="1" as="geometry">
            <mxPoint x="1990" y="110" as="sourcePoint" />
            <mxPoint x="1890" y="60" as="targetPoint" />
          </mxGeometry>
        </mxCell>
        <mxCell id="KEiRRp0jiS-QSiUn-5vj-251" value="" style="shape=waypoint;sketch=0;fillStyle=solid;size=6;pointerEvents=1;points=[];fillColor=#ffe6cc;resizable=0;rotatable=0;perimeter=centerPerimeter;snapToPoint=1;strokeColor=#d79b00;" vertex="1" parent="1">
          <mxGeometry x="1710" y="130" width="20" height="20" as="geometry" />
        </mxCell>
        <mxCell id="KEiRRp0jiS-QSiUn-5vj-252" value="" style="endArrow=none;dashed=1;html=1;rounded=0;fillColor=#1ba1e2;strokeColor=#006EAF;strokeWidth=2;" edge="1" parent="1">
          <mxGeometry width="50" height="50" relative="1" as="geometry">
            <mxPoint x="1970" y="140" as="sourcePoint" />
            <mxPoint x="1860" y="120" as="targetPoint" />
          </mxGeometry>
        </mxCell>
        <mxCell id="KEiRRp0jiS-QSiUn-5vj-253" value="" style="endArrow=none;dashed=1;html=1;dashPattern=1 2;strokeWidth=2;rounded=0;fillColor=#6d8764;strokeColor=#0DFF1C;" edge="1" parent="1">
          <mxGeometry width="50" height="50" relative="1" as="geometry">
            <mxPoint x="1810" y="240" as="sourcePoint" />
            <mxPoint x="1890" y="160" as="targetPoint" />
          </mxGeometry>
        </mxCell>
        <mxCell id="KEiRRp0jiS-QSiUn-5vj-254" value="" style="endArrow=none;dashed=1;html=1;dashPattern=1 2;strokeWidth=2;rounded=0;fillColor=#6d8764;strokeColor=light-dark(#0DFF1C,#9DB395);" edge="1" parent="1">
          <mxGeometry width="50" height="50" relative="1" as="geometry">
            <mxPoint x="1960" y="220" as="sourcePoint" />
            <mxPoint x="1890" y="160" as="targetPoint" />
          </mxGeometry>
        </mxCell>
        <mxCell id="KEiRRp0jiS-QSiUn-5vj-255" value="" style="endArrow=none;dashed=1;html=1;dashPattern=1 2;strokeWidth=2;rounded=0;fillColor=#6d8764;strokeColor=#0DFF1C;" edge="1" parent="1">
          <mxGeometry width="50" height="50" relative="1" as="geometry">
            <mxPoint x="1810" y="240" as="sourcePoint" />
            <mxPoint x="1880" y="300" as="targetPoint" />
          </mxGeometry>
        </mxCell>
        <mxCell id="KEiRRp0jiS-QSiUn-5vj-256" value="" style="endArrow=none;dashed=1;html=1;dashPattern=1 2;strokeWidth=2;rounded=0;fillColor=#6d8764;strokeColor=#0DFF1C;" edge="1" parent="1">
          <mxGeometry width="50" height="50" relative="1" as="geometry">
            <mxPoint x="1960" y="220" as="sourcePoint" />
            <mxPoint x="1880" y="300" as="targetPoint" />
          </mxGeometry>
        </mxCell>
        <mxCell id="KEiRRp0jiS-QSiUn-5vj-259" value="" style="endArrow=none;dashed=1;html=1;dashPattern=1 2;strokeWidth=2;rounded=0;fillColor=#6d8764;strokeColor=#0DFF1C;" edge="1" parent="1">
          <mxGeometry width="50" height="50" relative="1" as="geometry">
            <mxPoint x="1820" y="160" as="sourcePoint" />
            <mxPoint x="1820" y="120" as="targetPoint" />
          </mxGeometry>
        </mxCell>
        <mxCell id="KEiRRp0jiS-QSiUn-5vj-260" value="" style="endArrow=none;dashed=1;html=1;dashPattern=1 2;strokeWidth=2;rounded=0;fillColor=#6d8764;strokeColor=#0DFF1C;" edge="1" parent="1">
          <mxGeometry width="50" height="50" relative="1" as="geometry">
            <mxPoint x="1820" y="160" as="sourcePoint" />
            <mxPoint x="1770" y="140" as="targetPoint" />
          </mxGeometry>
        </mxCell>
        <mxCell id="KEiRRp0jiS-QSiUn-5vj-261" value="" style="endArrow=none;dashed=1;html=1;dashPattern=1 2;strokeWidth=2;rounded=0;fillColor=#6d8764;strokeColor=#0DFF1C;" edge="1" parent="1">
          <mxGeometry width="50" height="50" relative="1" as="geometry">
            <mxPoint x="1820" y="120" as="sourcePoint" />
            <mxPoint x="1770" y="140" as="targetPoint" />
          </mxGeometry>
        </mxCell>
        <mxCell id="KEiRRp0jiS-QSiUn-5vj-262" value="" style="endArrow=none;dashed=1;html=1;dashPattern=1 2;strokeWidth=2;rounded=0;fillColor=#6d8764;strokeColor=#0DFF1C;" edge="1" parent="1">
          <mxGeometry width="50" height="50" relative="1" as="geometry">
            <mxPoint x="1810" y="80" as="sourcePoint" />
            <mxPoint x="1790" y="100" as="targetPoint" />
          </mxGeometry>
        </mxCell>
        <mxCell id="KEiRRp0jiS-QSiUn-5vj-263" value="" style="endArrow=none;dashed=1;html=1;dashPattern=1 2;strokeWidth=2;rounded=0;fillColor=#6d8764;strokeColor=#0DFF1C;" edge="1" parent="1">
          <mxGeometry width="50" height="50" relative="1" as="geometry">
            <mxPoint x="1810" y="80" as="sourcePoint" />
            <mxPoint x="1850" y="70" as="targetPoint" />
          </mxGeometry>
        </mxCell>
        <mxCell id="KEiRRp0jiS-QSiUn-5vj-264" value="" style="endArrow=none;dashed=1;html=1;dashPattern=1 2;strokeWidth=2;rounded=0;fillColor=#6d8764;strokeColor=#0DFF1C;" edge="1" parent="1">
          <mxGeometry width="50" height="50" relative="1" as="geometry">
            <mxPoint x="1850" y="70" as="sourcePoint" />
            <mxPoint x="1860" y="90" as="targetPoint" />
          </mxGeometry>
        </mxCell>
        <mxCell id="KEiRRp0jiS-QSiUn-5vj-265" value="" style="endArrow=none;dashed=1;html=1;dashPattern=1 2;strokeWidth=2;rounded=0;fillColor=#6d8764;strokeColor=#0DFF1C;" edge="1" parent="1">
          <mxGeometry width="50" height="50" relative="1" as="geometry">
            <mxPoint x="1860" y="90" as="sourcePoint" />
            <mxPoint x="1830" y="110" as="targetPoint" />
          </mxGeometry>
        </mxCell>
        <mxCell id="KEiRRp0jiS-QSiUn-5vj-266" value="" style="endArrow=none;dashed=1;html=1;dashPattern=1 2;strokeWidth=2;rounded=0;fillColor=#6d8764;strokeColor=#0DFF1C;" edge="1" parent="1">
          <mxGeometry width="50" height="50" relative="1" as="geometry">
            <mxPoint x="1790" y="100" as="sourcePoint" />
            <mxPoint x="1830" y="110" as="targetPoint" />
          </mxGeometry>
        </mxCell>
        <mxCell id="KEiRRp0jiS-QSiUn-5vj-267" value="" style="endArrow=none;dashed=1;html=1;dashPattern=1 2;strokeWidth=2;rounded=0;fillColor=#6d8764;strokeColor=#0DFF1C;" edge="1" parent="1">
          <mxGeometry width="50" height="50" relative="1" as="geometry">
            <mxPoint x="1750" y="30" as="sourcePoint" />
            <mxPoint x="1790" y="70" as="targetPoint" />
          </mxGeometry>
        </mxCell>
        <mxCell id="KEiRRp0jiS-QSiUn-5vj-268" value="" style="endArrow=none;dashed=1;html=1;dashPattern=1 2;strokeWidth=2;rounded=0;fillColor=#6d8764;strokeColor=#0DFF1C;" edge="1" parent="1">
          <mxGeometry width="50" height="50" relative="1" as="geometry">
            <mxPoint x="1790" y="70" as="sourcePoint" />
            <mxPoint x="1740" y="120" as="targetPoint" />
          </mxGeometry>
        </mxCell>
        <mxCell id="KEiRRp0jiS-QSiUn-5vj-269" value="" style="endArrow=none;dashed=1;html=1;dashPattern=1 2;strokeWidth=2;rounded=0;fillColor=#6d8764;strokeColor=#0DFF1C;" edge="1" parent="1">
          <mxGeometry width="50" height="50" relative="1" as="geometry">
            <mxPoint x="1750" y="30" as="sourcePoint" />
            <mxPoint x="1740" y="120" as="targetPoint" />
          </mxGeometry>
        </mxCell>
        <mxCell id="KEiRRp0jiS-QSiUn-5vj-272" value="" style="endArrow=none;dashed=1;html=1;rounded=0;strokeWidth=2;fillColor=#1ba1e2;strokeColor=#006EAF;" edge="1" parent="1">
          <mxGeometry width="50" height="50" relative="1" as="geometry">
            <mxPoint x="1780" y="110" as="sourcePoint" />
            <mxPoint x="1760" y="140" as="targetPoint" />
          </mxGeometry>
        </mxCell>
        <mxCell id="KEiRRp0jiS-QSiUn-5vj-289" value="" style="shape=waypoint;sketch=0;fillStyle=solid;size=6;pointerEvents=1;points=[];fillColor=#ffe6cc;resizable=0;rotatable=0;perimeter=centerPerimeter;snapToPoint=1;strokeColor=#d79b00;" vertex="1" parent="1">
          <mxGeometry x="620" y="150" width="20" height="20" as="geometry" />
        </mxCell>
        <mxCell id="KEiRRp0jiS-QSiUn-5vj-291" value="" style="endArrow=none;html=1;rounded=0;fillColor=#f8cecc;strokeColor=#b85450;strokeWidth=2;" edge="1" parent="1" target="KEiRRp0jiS-QSiUn-5vj-290">
          <mxGeometry width="50" height="50" relative="1" as="geometry">
            <mxPoint x="590" y="200" as="sourcePoint" />
            <mxPoint x="610" y="120" as="targetPoint" />
          </mxGeometry>
        </mxCell>
        <mxCell id="KEiRRp0jiS-QSiUn-5vj-290" value="" style="shape=waypoint;sketch=0;fillStyle=solid;size=6;pointerEvents=1;points=[];fillColor=#ffe6cc;resizable=0;rotatable=0;perimeter=centerPerimeter;snapToPoint=1;strokeColor=#d79b00;" vertex="1" parent="1">
          <mxGeometry x="590" y="150" width="20" height="20" as="geometry" />
        </mxCell>
        <mxCell id="KEiRRp0jiS-QSiUn-5vj-292" value="170, 160" style="text;html=1;align=center;verticalAlign=middle;whiteSpace=wrap;rounded=0;fillColor=#ffe6cc;strokeColor=#d79b00;" vertex="1" parent="1">
          <mxGeometry x="540" y="155" width="50" height="20" as="geometry" />
        </mxCell>
        <mxCell id="KEiRRp0jiS-QSiUn-5vj-294" value="170, 160" style="text;html=1;align=center;verticalAlign=middle;whiteSpace=wrap;rounded=0;fillColor=#ffe6cc;strokeColor=#d79b00;" vertex="1" parent="1">
          <mxGeometry x="110" y="155" width="50" height="20" as="geometry" />
        </mxCell>
        <mxCell id="KEiRRp0jiS-QSiUn-5vj-295" value="" style="endArrow=none;html=1;rounded=0;fillColor=#f8cecc;strokeColor=#b85450;strokeWidth=2;" edge="1" parent="1" target="KEiRRp0jiS-QSiUn-5vj-293">
          <mxGeometry width="50" height="50" relative="1" as="geometry">
            <mxPoint x="160" y="200" as="sourcePoint" />
            <mxPoint x="180" y="120" as="targetPoint" />
          </mxGeometry>
        </mxCell>
        <mxCell id="KEiRRp0jiS-QSiUn-5vj-293" value="" style="shape=waypoint;sketch=0;fillStyle=solid;size=6;pointerEvents=1;points=[];fillColor=#ffe6cc;resizable=0;rotatable=0;perimeter=centerPerimeter;snapToPoint=1;strokeColor=#d79b00;" vertex="1" parent="1">
          <mxGeometry x="160" y="150" width="20" height="20" as="geometry" />
        </mxCell>
        <mxCell id="KEiRRp0jiS-QSiUn-5vj-297" value="" style="endArrow=none;dashed=1;html=1;rounded=0;fillColor=#1ba1e2;strokeColor=#006EAF;strokeWidth=2;" edge="1" parent="1">
          <mxGeometry width="50" height="50" relative="1" as="geometry">
            <mxPoint x="190" y="200" as="sourcePoint" />
            <mxPoint x="170" y="300" as="targetPoint" />
          </mxGeometry>
        </mxCell>
        <mxCell id="KEiRRp0jiS-QSiUn-5vj-298" value="170, 300&lt;div&gt;190, 200&lt;/div&gt;" style="text;html=1;align=center;verticalAlign=middle;whiteSpace=wrap;rounded=0;fillColor=#dae8fc;strokeColor=#6c8ebf;" vertex="1" parent="1">
          <mxGeometry x="110" y="270" width="50" height="30" as="geometry" />
        </mxCell>
        <mxCell id="KEiRRp0jiS-QSiUn-5vj-299" value="" style="endArrow=none;dashed=1;html=1;rounded=0;fillColor=#1ba1e2;strokeColor=#006EAF;strokeWidth=2;" edge="1" parent="1">
          <mxGeometry width="50" height="50" relative="1" as="geometry">
            <mxPoint x="200" y="200" as="sourcePoint" />
            <mxPoint x="190" y="250" as="targetPoint" />
          </mxGeometry>
        </mxCell>
        <mxCell id="KEiRRp0jiS-QSiUn-5vj-300" value="" style="endArrow=none;dashed=1;html=1;rounded=0;fillColor=#1ba1e2;strokeColor=#006EAF;strokeWidth=2;" edge="1" parent="1">
          <mxGeometry width="50" height="50" relative="1" as="geometry">
            <mxPoint x="220" y="200" as="sourcePoint" />
            <mxPoint x="200" y="200" as="targetPoint" />
          </mxGeometry>
        </mxCell>
        <mxCell id="KEiRRp0jiS-QSiUn-5vj-301" value="" style="endArrow=none;dashed=1;html=1;rounded=0;fillColor=#1ba1e2;strokeColor=#006EAF;strokeWidth=2;" edge="1" parent="1">
          <mxGeometry width="50" height="50" relative="1" as="geometry">
            <mxPoint x="230" y="250" as="sourcePoint" />
            <mxPoint x="220" y="200" as="targetPoint" />
          </mxGeometry>
        </mxCell>
        <mxCell id="KEiRRp0jiS-QSiUn-5vj-302" value="190, 250&lt;div&gt;200, 200&lt;/div&gt;&lt;div&gt;220, 200&lt;/div&gt;&lt;div&gt;230, 250&lt;/div&gt;" style="text;html=1;align=center;verticalAlign=middle;whiteSpace=wrap;rounded=0;fillColor=#dae8fc;strokeColor=#6c8ebf;" vertex="1" parent="1">
          <mxGeometry x="200" y="255" width="50" height="60" as="geometry" />
        </mxCell>
        <mxCell id="KEiRRp0jiS-QSiUn-5vj-310" value="" style="endArrow=none;dashed=1;html=1;rounded=0;fillColor=#1ba1e2;strokeColor=#006EAF;strokeWidth=2;" edge="1" parent="1">
          <mxGeometry width="50" height="50" relative="1" as="geometry">
            <mxPoint x="980" y="200" as="sourcePoint" />
            <mxPoint x="960" y="300" as="targetPoint" />
          </mxGeometry>
        </mxCell>
        <mxCell id="KEiRRp0jiS-QSiUn-5vj-311" value="" style="endArrow=none;dashed=1;html=1;rounded=0;fillColor=#1ba1e2;strokeColor=#006EAF;strokeWidth=2;" edge="1" parent="1">
          <mxGeometry width="50" height="50" relative="1" as="geometry">
            <mxPoint x="990" y="200" as="sourcePoint" />
            <mxPoint x="980" y="250" as="targetPoint" />
          </mxGeometry>
        </mxCell>
        <mxCell id="KEiRRp0jiS-QSiUn-5vj-312" value="" style="endArrow=none;dashed=1;html=1;rounded=0;fillColor=#1ba1e2;strokeColor=#006EAF;strokeWidth=2;" edge="1" parent="1">
          <mxGeometry width="50" height="50" relative="1" as="geometry">
            <mxPoint x="1010" y="200" as="sourcePoint" />
            <mxPoint x="990" y="200" as="targetPoint" />
          </mxGeometry>
        </mxCell>
        <mxCell id="KEiRRp0jiS-QSiUn-5vj-313" value="" style="endArrow=none;dashed=1;html=1;rounded=0;fillColor=#1ba1e2;strokeColor=#006EAF;strokeWidth=2;" edge="1" parent="1">
          <mxGeometry width="50" height="50" relative="1" as="geometry">
            <mxPoint x="1020" y="250" as="sourcePoint" />
            <mxPoint x="1010" y="200" as="targetPoint" />
          </mxGeometry>
        </mxCell>
        <mxCell id="KEiRRp0jiS-QSiUn-5vj-314" value="170, 300&lt;div&gt;190, 200&lt;/div&gt;" style="text;html=1;align=center;verticalAlign=middle;whiteSpace=wrap;rounded=0;fillColor=#dae8fc;strokeColor=#6c8ebf;" vertex="1" parent="1">
          <mxGeometry x="900" y="270" width="50" height="30" as="geometry" />
        </mxCell>
        <mxCell id="KEiRRp0jiS-QSiUn-5vj-315" value="190, 250&lt;div&gt;200, 200&lt;/div&gt;&lt;div&gt;220, 200&lt;/div&gt;&lt;div&gt;230, 250&lt;/div&gt;" style="text;html=1;align=center;verticalAlign=middle;whiteSpace=wrap;rounded=0;fillColor=#dae8fc;strokeColor=#6c8ebf;" vertex="1" parent="1">
          <mxGeometry x="990" y="255" width="50" height="60" as="geometry" />
        </mxCell>
        <mxCell id="KEiRRp0jiS-QSiUn-5vj-316" value="" style="endArrow=none;dashed=1;html=1;rounded=0;fillColor=#1ba1e2;strokeColor=#006EAF;strokeWidth=2;" edge="1" parent="1">
          <mxGeometry width="50" height="50" relative="1" as="geometry">
            <mxPoint x="1760" y="200" as="sourcePoint" />
            <mxPoint x="1740" y="300" as="targetPoint" />
          </mxGeometry>
        </mxCell>
        <mxCell id="KEiRRp0jiS-QSiUn-5vj-318" value="" style="endArrow=none;dashed=1;html=1;rounded=0;fillColor=#1ba1e2;strokeColor=#006EAF;strokeWidth=2;" edge="1" parent="1">
          <mxGeometry width="50" height="50" relative="1" as="geometry">
            <mxPoint x="1770" y="200" as="sourcePoint" />
            <mxPoint x="1760" y="250" as="targetPoint" />
          </mxGeometry>
        </mxCell>
        <mxCell id="KEiRRp0jiS-QSiUn-5vj-319" value="" style="endArrow=none;dashed=1;html=1;rounded=0;fillColor=#1ba1e2;strokeColor=#006EAF;strokeWidth=2;" edge="1" parent="1">
          <mxGeometry width="50" height="50" relative="1" as="geometry">
            <mxPoint x="1790" y="200" as="sourcePoint" />
            <mxPoint x="1770" y="200" as="targetPoint" />
          </mxGeometry>
        </mxCell>
        <mxCell id="KEiRRp0jiS-QSiUn-5vj-320" value="" style="endArrow=none;dashed=1;html=1;rounded=0;fillColor=#1ba1e2;strokeColor=#006EAF;strokeWidth=2;" edge="1" parent="1">
          <mxGeometry width="50" height="50" relative="1" as="geometry">
            <mxPoint x="1800" y="250" as="sourcePoint" />
            <mxPoint x="1790" y="200" as="targetPoint" />
          </mxGeometry>
        </mxCell>
        <mxCell id="KEiRRp0jiS-QSiUn-5vj-323" value="" style="endArrow=none;html=1;rounded=0;fillColor=#f8cecc;strokeColor=#b85450;strokeWidth=2;" edge="1" parent="1" target="KEiRRp0jiS-QSiUn-5vj-322">
          <mxGeometry width="50" height="50" relative="1" as="geometry">
            <mxPoint x="1730" y="200" as="sourcePoint" />
            <mxPoint x="1750" y="120" as="targetPoint" />
          </mxGeometry>
        </mxCell>
        <mxCell id="KEiRRp0jiS-QSiUn-5vj-322" value="" style="shape=waypoint;sketch=0;fillStyle=solid;size=6;pointerEvents=1;points=[];fillColor=#ffe6cc;resizable=0;rotatable=0;perimeter=centerPerimeter;snapToPoint=1;strokeColor=#d79b00;" vertex="1" parent="1">
          <mxGeometry x="1730" y="150" width="20" height="20" as="geometry" />
        </mxCell>
        <mxCell id="KEiRRp0jiS-QSiUn-5vj-325" value="" style="shape=waypoint;sketch=0;fillStyle=solid;size=6;pointerEvents=1;points=[];fillColor=#ffe6cc;resizable=0;rotatable=0;perimeter=centerPerimeter;snapToPoint=1;strokeColor=#d79b00;" vertex="1" parent="1">
          <mxGeometry x="710" y="110" width="20" height="20" as="geometry" />
        </mxCell>
        <mxCell id="KEiRRp0jiS-QSiUn-5vj-327" value="" style="endArrow=none;dashed=1;html=1;rounded=0;fillColor=#1ba1e2;strokeColor=#006EAF;strokeWidth=2;" edge="1" parent="1" target="KEiRRp0jiS-QSiUn-5vj-326">
          <mxGeometry width="50" height="50" relative="1" as="geometry">
            <mxPoint x="400" y="140" as="sourcePoint" />
            <mxPoint x="290" y="120" as="targetPoint" />
          </mxGeometry>
        </mxCell>
        <mxCell id="KEiRRp0jiS-QSiUn-5vj-326" value="" style="shape=waypoint;sketch=0;fillStyle=solid;size=6;pointerEvents=1;points=[];fillColor=#ffe6cc;resizable=0;rotatable=0;perimeter=centerPerimeter;snapToPoint=1;strokeColor=#d79b00;" vertex="1" parent="1">
          <mxGeometry x="280" y="110" width="20" height="20" as="geometry" />
        </mxCell>
        <mxCell id="KEiRRp0jiS-QSiUn-5vj-328" value="290, 120" style="text;html=1;align=center;verticalAlign=middle;whiteSpace=wrap;rounded=0;fillColor=#ffe6cc;strokeColor=#d79b00;" vertex="1" parent="1">
          <mxGeometry x="730" y="110" width="50" height="20" as="geometry" />
        </mxCell>
        <mxCell id="KEiRRp0jiS-QSiUn-5vj-329" value="" style="endArrow=none;dashed=1;html=1;dashPattern=1 2;strokeWidth=2;rounded=0;fillColor=#6d8764;strokeColor=light-dark(#0DFF1C,#9DB395);" edge="1" parent="1">
          <mxGeometry width="50" height="50" relative="1" as="geometry">
            <mxPoint x="400" as="sourcePoint" />
            <mxPoint x="120" as="targetPoint" />
          </mxGeometry>
        </mxCell>
        <mxCell id="KEiRRp0jiS-QSiUn-5vj-331" value="" style="endArrow=none;dashed=1;html=1;dashPattern=1 2;strokeWidth=2;rounded=0;fillColor=#6d8764;strokeColor=light-dark(#0DFF1C,#9DB395);" edge="1" parent="1">
          <mxGeometry width="50" height="50" relative="1" as="geometry">
            <mxPoint x="400" y="240" as="sourcePoint" />
            <mxPoint x="400" as="targetPoint" />
          </mxGeometry>
        </mxCell>
        <mxCell id="KEiRRp0jiS-QSiUn-5vj-333" value="" style="endArrow=none;dashed=1;html=1;dashPattern=1 2;strokeWidth=2;rounded=0;fillColor=#6d8764;strokeColor=light-dark(#0DFF1C,#9DB395);" edge="1" parent="1">
          <mxGeometry width="50" height="50" relative="1" as="geometry">
            <mxPoint x="120" y="240" as="sourcePoint" />
            <mxPoint x="400" y="240" as="targetPoint" />
          </mxGeometry>
        </mxCell>
        <mxCell id="KEiRRp0jiS-QSiUn-5vj-336" value="" style="endArrow=none;dashed=1;html=1;dashPattern=1 2;strokeWidth=2;rounded=0;fillColor=#6d8764;strokeColor=light-dark(#0DFF1C,#9DB395);" edge="1" parent="1">
          <mxGeometry width="50" height="50" relative="1" as="geometry">
            <mxPoint x="120" as="sourcePoint" />
            <mxPoint x="120" y="240" as="targetPoint" />
          </mxGeometry>
        </mxCell>
        <mxCell id="KEiRRp0jiS-QSiUn-5vj-337" value="&lt;div&gt;120, 240&lt;/div&gt;&lt;div&gt;400, 240&lt;/div&gt;&lt;div&gt;400, 0&lt;/div&gt;120, 0" style="text;html=1;align=center;verticalAlign=middle;whiteSpace=wrap;rounded=0;fillColor=#d5e8d4;strokeColor=#82b366;" vertex="1" parent="1">
          <mxGeometry x="60" width="50" height="60" as="geometry" />
        </mxCell>
        <mxCell id="KEiRRp0jiS-QSiUn-5vj-338" value="" style="endArrow=none;dashed=1;html=1;dashPattern=1 2;strokeWidth=2;rounded=0;fillColor=#6d8764;strokeColor=light-dark(#0DFF1C,#9DB395);" edge="1" parent="1">
          <mxGeometry width="50" height="50" relative="1" as="geometry">
            <mxPoint x="1630" y="239.13" as="sourcePoint" />
            <mxPoint x="1630" y="-0.8699999999999992" as="targetPoint" />
          </mxGeometry>
        </mxCell>
        <mxCell id="KEiRRp0jiS-QSiUn-5vj-339" value="" style="endArrow=none;dashed=1;html=1;dashPattern=1 2;strokeWidth=2;rounded=0;fillColor=#6d8764;strokeColor=light-dark(#0DFF1C,#9DB395);" edge="1" parent="1">
          <mxGeometry width="50" height="50" relative="1" as="geometry">
            <mxPoint x="1630" y="-0.8699999999999992" as="sourcePoint" />
            <mxPoint x="1350" y="-0.8699999999999992" as="targetPoint" />
          </mxGeometry>
        </mxCell>
        <mxCell id="KEiRRp0jiS-QSiUn-5vj-340" value="" style="endArrow=none;dashed=1;html=1;dashPattern=1 2;strokeWidth=2;rounded=0;fillColor=#6d8764;strokeColor=light-dark(#0DFF1C,#9DB395);" edge="1" parent="1">
          <mxGeometry width="50" height="50" relative="1" as="geometry">
            <mxPoint x="1350" y="-0.8699999999999992" as="sourcePoint" />
            <mxPoint x="1350" y="239.13" as="targetPoint" />
          </mxGeometry>
        </mxCell>
        <mxCell id="KEiRRp0jiS-QSiUn-5vj-341" value="" style="endArrow=none;dashed=1;html=1;dashPattern=1 2;strokeWidth=2;rounded=0;fillColor=#6d8764;strokeColor=light-dark(#0DFF1C,#9DB395);" edge="1" parent="1">
          <mxGeometry width="50" height="50" relative="1" as="geometry">
            <mxPoint x="1350" y="239.13" as="sourcePoint" />
            <mxPoint x="1630" y="239.13" as="targetPoint" />
          </mxGeometry>
        </mxCell>
        <mxCell id="KEiRRp0jiS-QSiUn-5vj-342" value="&lt;div&gt;120, 240&lt;/div&gt;&lt;div&gt;400, 240&lt;/div&gt;&lt;div&gt;400, 0&lt;/div&gt;120, 0" style="text;html=1;align=center;verticalAlign=middle;whiteSpace=wrap;rounded=0;fillColor=#d5e8d4;strokeColor=#82b366;" vertex="1" parent="1">
          <mxGeometry x="1490" y="-70" width="50" height="60" as="geometry" />
        </mxCell>
        <mxCell id="KEiRRp0jiS-QSiUn-5vj-346" value="" style="shape=waypoint;sketch=0;fillStyle=solid;size=6;pointerEvents=1;points=[];fillColor=#ffe6cc;resizable=0;rotatable=0;perimeter=centerPerimeter;snapToPoint=1;strokeColor=#d79b00;" vertex="1" parent="1">
          <mxGeometry x="1850" y="110" width="20" height="20" as="geometry" />
        </mxCell>
        <mxCell id="KEiRRp0jiS-QSiUn-5vj-347" value="" style="endArrow=none;dashed=1;html=1;dashPattern=1 2;strokeWidth=2;rounded=0;fillColor=#6d8764;strokeColor=light-dark(#0DFF1C,#9DB395);" edge="1" parent="1">
          <mxGeometry width="50" height="50" relative="1" as="geometry">
            <mxPoint x="1690" y="240" as="sourcePoint" />
            <mxPoint x="1970" y="240" as="targetPoint" />
          </mxGeometry>
        </mxCell>
        <mxCell id="KEiRRp0jiS-QSiUn-5vj-348" value="" style="endArrow=none;dashed=1;html=1;dashPattern=1 2;strokeWidth=2;rounded=0;fillColor=#6d8764;strokeColor=light-dark(#0DFF1C,#9DB395);" edge="1" parent="1">
          <mxGeometry width="50" height="50" relative="1" as="geometry">
            <mxPoint x="1690" as="sourcePoint" />
            <mxPoint x="1690" y="240" as="targetPoint" />
          </mxGeometry>
        </mxCell>
        <mxCell id="KEiRRp0jiS-QSiUn-5vj-349" value="" style="endArrow=none;dashed=1;html=1;dashPattern=1 2;strokeWidth=2;rounded=0;fillColor=#6d8764;strokeColor=light-dark(#0DFF1C,#9DB395);" edge="1" parent="1">
          <mxGeometry width="50" height="50" relative="1" as="geometry">
            <mxPoint x="1970" as="sourcePoint" />
            <mxPoint x="1690" as="targetPoint" />
          </mxGeometry>
        </mxCell>
        <mxCell id="KEiRRp0jiS-QSiUn-5vj-350" value="" style="endArrow=none;dashed=1;html=1;dashPattern=1 2;strokeWidth=2;rounded=0;fillColor=#6d8764;strokeColor=light-dark(#0DFF1C,#9DB395);" edge="1" parent="1">
          <mxGeometry width="50" height="50" relative="1" as="geometry">
            <mxPoint x="1970" y="240" as="sourcePoint" />
            <mxPoint x="1970" as="targetPoint" />
          </mxGeometry>
        </mxCell>
        <mxCell id="KEiRRp0jiS-QSiUn-5vj-204" value="360, 40" style="text;html=1;align=center;verticalAlign=middle;whiteSpace=wrap;rounded=0;fillColor=#f8cecc;strokeColor=#b85450;" vertex="1" parent="1">
          <mxGeometry x="1594" y="30" width="50" height="20" as="geometry" />
        </mxCell>
      </root>
    </mxGraphModel>
  </diagram>
</mxfile>
